<?xml version="1.0" encoding="UTF-8" standalone="no"?>
<svg
   xmlns="http://www.w3.org/2000/svg"
   version="1.1"
   width="100%"
   height="100%"
   viewBox="0 0 429.30447 437.80814">
  <g transform="matrix(1,0,0,-1,-94.381296,444.03895)">
    <path
       d="M 283.408,258.632 C 262.835,248.965 258.335,224.815 266.553,207.869 282.731,174.509 319.64,156.16 359.8,150.2 401.536,144.007 421.857,129.172 441.485,107.815 455.96,92.065 449.885,65.44 435.56,54.94 418.606,42.513 393.41,44.365 380.8,63.574 365.015,87.619 357.061,118.843 359.8,147.574 362.503,175.92 374.135,203.89 395.81,225.04 417.391,246.098 445.259,260.514 478.3,262.324 501.41,263.59 517.248,243.521 517.676,225.574 518.135,206.365 502.235,186.79 479.885,187.54 450.095,188.539 420.588,201.456 397.91,223.165 376.835,243.34 363.228,270.639 359.66,300.64 355.985,331.54 365.586,365.154 383.05,389.45 394.31,405.115 420.641,407.695 435.335,395.44 452.51,381.115 454.309,356.396 439.676,340.324 419.66,318.34 391.094,303.706 360.935,299.965 333.139,296.517 300.846,304.275 278.21,318.715 252.11,335.365 232.835,359.065 223.235,392.44 218.26,409.736 231.178,432.93 251.36,437.215 270.785,441.34 291.785,428.815 296.05,411.2 301.769,387.579 298.535,350.515 280.385,321.19 265.215,296.679 243.335,277.015 213.635,266.665 185.059,256.707 151.175,256.583 121.61,269.365 101.66,277.99 94.537,305.665 106.235,323.44 115.91,338.14 137.51,346.315 154.385,336.865 182.6,321.065 201.922,297.437 212.426,269.824 223.385,241.015 223.565,210.554 213.635,183.79 201.335,150.64 181.813,127.658 154.91,113.44 135.185,103.015 111.834,113.781 103.91,130.69 95.51,148.615 102.635,172.315 121.46,180.715 148.594,192.822 180.496,193.92 211.01,184.39 239.585,175.465 263.66,154.99 278.735,131.44 294.647,106.581 300.935,77.59 297.176,44.824 294.707,23.295 272.705,8.285 251.585,13.165 232.76,17.515 217.085,36.265 224.66,61.99 232.826,89.724 252.573,115.028 276.41,129.94 308.66,150.115 338.555,187.78 337.528,225.91 336.86,250.69 310.648,271.432 283.408,258.632 Z"
       id="doodle"
       style="stroke:#7f007e; stroke-width:12; fill:none" />
  </g>
</svg>
