<?xml version="1.0" standalone="no"?>
<!DOCTYPE svg PUBLIC "-//W3C//DTD SVG 1.1//EN" "http://www.w3.org/Graphics/SVG/1.1/DTD/svg11.dtd">
<!--Generator: Xara Xtreme (www.xara.com), SVG filter version: 1.0.0.13-->
<!-- Author: Paul LeBeau (paul@caverock.com) -->
<svg xmlns:xlink="http://www.w3.org/1999/xlink" xmlns="http://www.w3.org/2000/svg" version="1.1" width="100%" height="100%" viewBox="0 0 375 290">
 <g id="Document" transform="scale(1 -1)">
  <g id="Spread" transform="translate(0 -375)">
   <g id="Layer 1">
    <path d="M 52.5,183.75 L 52.5,141.75 L 105,115.5 L 210,168 L 210,210 L 157.5,237.708 L 52.5,183.75 Z" class="brick1" fill="#ea272e" stroke="none"/>
    <path d="M 105,157.5 L 105,115.5 L 210,168 L 210,210 L 105,157.5 Z" fill="#000000" stroke="none" fill-opacity="0.2"/>
    <path d="M 52.499,183.749 L 52.5,141.75 L 105,115.5 L 105,157.751 L 52.499,183.749 Z" fill="#ffffff" stroke="none" fill-opacity="0.098039"/>
    <g id="Group" stroke="none">
     <path d="M 93.75,171.289 L 93.75,180.74 C 93.75,184.211 98.79,187.029 104.999,187.029 C 111.21,187.029 116.25,184.211 116.25,180.74 L 116.25,171.289 C 116.25,167.817 111.21,165 104.999,165 C 98.79,165 93.75,167.817 93.75,171.289 Z" fill="#000000" fill-opacity="0.25"/>
     <ellipse rx="6.289" ry="11.25" transform="translate(105.001 180.74) rotate(90)" class="brick1" fill="#ea272e"/>
    </g>
    <g id="Group_1" stroke="none">
     <path d="M 69,183.664 L 69,193.115 C 69,196.586 74.04,199.404 80.249,199.404 C 86.46,199.404 91.5,196.586 91.5,193.115 L 91.5,183.664 C 91.5,180.192 86.46,177.375 80.249,177.375 C 74.04,177.375 69,180.192 69,183.664 Z" fill="#000000" fill-opacity="0.25"/>
     <ellipse rx="6.289" ry="11.25" transform="translate(80.251 193.115) rotate(90)" class="brick1" fill="#ea272e"/>
    </g>
    <path d="M 105,252 L 105,210 L 157.5,183.75 L 262.5,236.25 L 262.5,278.25 L 210,304.5 L 105,252 Z" class="brick3" fill="#1698ec" stroke="none"/>
    <path d="M 157.5,225.75 L 157.5,183.75 L 262.5,236.25 L 262.5,278.25 L 157.5,225.75 Z" fill="#000000" stroke="none" fill-opacity="0.2"/>
    <path d="M 105,252 L 105,210 L 157.5,183.75 L 157.5,225.75 L 105,252 Z" fill="#ffffff" stroke="none" fill-opacity="0.098039"/>
    <g id="Group_2" stroke="none">
     <path d="M 146.25,239.539 L 146.25,248.99 C 146.25,252.461 151.29,255.279 157.499,255.279 C 163.71,255.279 168.75,252.461 168.75,248.99 L 168.75,239.539 C 168.75,236.067 163.71,233.25 157.499,233.25 C 151.29,233.25 146.25,236.067 146.25,239.539 Z" fill="#000000" fill-opacity="0.25"/>
     <ellipse rx="6.289" ry="11.25" transform="translate(157.501 248.99) rotate(90)" class="brick3" fill="#1698ec"/>
    </g>
    <g id="Group_3" stroke="none">
     <path d="M 121.5,251.914 L 121.5,261.365 C 121.5,264.836 126.54,267.654 132.749,267.654 C 138.96,267.654 144,264.836 144,261.365 L 144,251.914 C 144,248.442 138.96,245.625 132.749,245.625 C 126.54,245.625 121.5,248.442 121.5,251.914 Z" fill="#000000" fill-opacity="0.25"/>
     <ellipse rx="6.289" ry="11.25" transform="translate(132.751 261.365) rotate(90)" class="brick3" fill="#1698ec"/>
    </g>
    <path d="M 157.5,320.25 L 157.5,278.25 L 210,252 L 262.5,278.25 L 262.5,320.25 L 210,346.5 L 157.5,320.25 Z" class="brick4" fill="#fef134" stroke="none"/>
    <path d="M 210,294 L 210,252 L 262.5,278.25 L 262.5,320.25 L 210,294 Z" fill="#000000" stroke="none" fill-opacity="0.2"/>
    <path d="M 157.5,320.25 L 157.5,278.25 L 210,252 L 210,294 L 157.5,320.25 Z" fill="#000000" stroke="none" fill-opacity="0.098039"/>
    <g id="Group_4" stroke="none">
     <path d="M 198.75,307.789 L 198.75,317.24 C 198.75,320.711 203.79,323.529 209.999,323.529 C 216.21,323.529 221.25,320.711 221.25,317.24 L 221.25,307.789 C 221.25,304.317 216.21,301.5 209.999,301.5 C 203.79,301.5 198.75,304.317 198.75,307.789 Z" fill="#000000" fill-opacity="0.25"/>
     <ellipse rx="6.289" ry="11.25" transform="translate(210.001 317.24) rotate(90)" class="brick4" fill="#fef134"/>
    </g>
    <g id="Group_5" stroke="none">
     <path d="M 174,320.164 L 174,329.615 C 174,333.086 179.04,335.904 185.249,335.904 C 191.46,335.904 196.5,333.086 196.5,329.615 L 196.5,320.164 C 196.5,316.692 191.46,313.875 185.249,313.875 C 179.04,313.875 174,316.692 174,320.164 Z" fill="#000000" fill-opacity="0.25"/>
     <ellipse rx="6.289" ry="11.25" transform="translate(185.251 329.615) rotate(90)" class="brick4" fill="#fef134"/>
    </g>
    <g id="Group_6" stroke="none">
     <path d="M 223.5,319.789 L 223.5,329.24 C 223.5,332.711 228.54,335.529 234.749,335.529 C 240.96,335.529 246,332.711 246,329.24 L 246,319.789 C 246,316.317 240.96,313.5 234.749,313.5 C 228.54,313.5 223.5,316.317 223.5,319.789 Z" fill="#000000" fill-opacity="0.25"/>
     <ellipse rx="6.289" ry="11.25" transform="translate(234.751 329.24) rotate(90)" class="brick4" fill="#fef134"/>
    </g>
    <g id="Group_7" stroke="none">
     <path d="M 198.75,331.414 L 198.75,340.865 C 198.75,344.336 203.79,347.154 209.999,347.154 C 216.21,347.154 221.25,344.336 221.25,340.865 L 221.25,331.414 C 221.25,327.942 216.21,325.125 209.999,325.125 C 203.79,325.125 198.75,327.942 198.75,331.414 Z" fill="#000000" fill-opacity="0.25"/>
     <ellipse rx="6.289" ry="11.25" transform="translate(210.001 340.865) rotate(90)" class="brick4" fill="#fef134"/>
    </g>
    <g id="Group_8" stroke="none">
     <path d="M 171,251.539 L 171,260.99 C 171,264.461 176.04,267.279 182.249,267.279 C 188.46,267.279 193.5,264.461 193.5,260.99 L 193.5,251.539 C 193.5,248.067 188.46,245.25 182.249,245.25 C 176.04,245.25 171,248.067 171,251.539 Z" fill="#000000" fill-opacity="0.25"/>
     <ellipse rx="6.289" ry="11.25" transform="translate(182.251 260.99) rotate(90)" class="brick3" fill="#1698ec"/>
    </g>
    <g id="Group_9" stroke="none">
     <path d="M 146.25,263.164 L 146.25,272.615 C 146.25,276.086 151.29,278.904 157.499,278.904 C 163.71,278.904 168.75,276.086 168.75,272.615 L 168.75,263.164 C 168.75,259.692 163.71,256.875 157.499,256.875 C 151.29,256.875 146.25,259.692 146.25,263.164 Z" fill="#000000" fill-opacity="0.25"/>
     <ellipse rx="6.289" ry="11.25" transform="translate(157.501 272.615) rotate(90)" class="brick3" fill="#1698ec"/>
    </g>
    <g id="Group_10" stroke="none">
     <path d="M 118.5,183.289 L 118.5,192.74 C 118.5,196.211 123.54,199.029 129.749,199.029 C 135.96,199.029 141,196.211 141,192.74 L 141,183.289 C 141,179.817 135.96,177 129.749,177 C 123.54,177 118.5,179.817 118.5,183.289 Z" fill="#000000" fill-opacity="0.25"/>
     <ellipse rx="6.289" ry="11.25" transform="translate(129.751 192.74) rotate(90)" class="brick1" fill="#ea272e"/>
    </g>
    <g id="Group_11" stroke="none">
     <path d="M 93.75,194.914 L 93.75,204.365 C 93.75,207.836 98.79,210.654 104.999,210.654 C 111.21,210.654 116.25,207.836 116.25,204.365 L 116.25,194.914 C 116.25,191.442 111.21,188.625 104.999,188.625 C 98.79,188.625 93.75,191.442 93.75,194.914 Z" fill="#000000" fill-opacity="0.25"/>
     <ellipse rx="6.289" ry="11.25" transform="translate(105.001 204.365) rotate(90)" class="brick1" fill="#ea272e"/>
    </g>
    <path d="M 210,210 L 210,168 L 262.5,141.75 L 315,168 L 315,210 L 262.5,236.25 L 210,210 Z" class="brick2" fill="#95e881" stroke="none"/>
    <path d="M 262.5,183.75 L 262.5,141.75 L 315,168 L 315,210 L 262.5,183.75 Z" fill="#000000" stroke="none" fill-opacity="0.2"/>
    <path d="M 210,210 L 210,168 L 262.5,141.75 L 262.5,183.75 L 210,210 Z" fill="#ffffff" stroke="none" fill-opacity="0.050980"/>
    <g id="Group_12" stroke="none">
     <path d="M 251.25,198.289 L 251.25,207.74 C 251.25,211.211 256.29,214.029 262.499,214.029 C 268.71,214.029 273.75,211.211 273.75,207.74 L 273.75,198.289 C 273.75,194.817 268.71,192 262.499,192 C 256.29,192 251.25,194.817 251.25,198.289 Z" fill="#000000" fill-opacity="0.25"/>
     <ellipse rx="6.289" ry="11.25" transform="translate(262.501 207.74) rotate(90)" class="brick2" fill="#95e881"/>
    </g>
    <g id="Group_13" stroke="none">
     <path d="M 226.5,210.664 L 226.5,220.115 C 226.5,223.586 231.54,226.404 237.749,226.404 C 243.96,226.404 249,223.586 249,220.115 L 249,210.664 C 249,207.192 243.96,204.375 237.749,204.375 C 231.54,204.375 226.5,207.192 226.5,210.664 Z" fill="#000000" fill-opacity="0.25"/>
     <ellipse rx="6.289" ry="11.25" transform="translate(237.751 220.115) rotate(90)" class="brick2" fill="#95e881"/>
    </g>
    <g id="Group_14" stroke="none">
     <path d="M 276,210.289 L 276,219.74 C 276,223.211 281.04,226.029 287.249,226.029 C 293.46,226.029 298.5,223.211 298.5,219.74 L 298.5,210.289 C 298.5,206.817 293.46,204 287.249,204 C 281.04,204 276,206.817 276,210.289 Z" fill="#000000" fill-opacity="0.25"/>
     <ellipse rx="6.289" ry="11.25" transform="translate(287.251 219.74) rotate(90)" class="brick2" fill="#95e881"/>
    </g>
    <g id="Group_15" stroke="none">
     <path d="M 251.25,221.914 L 251.25,231.365 C 251.25,234.836 256.29,237.654 262.499,237.654 C 268.71,237.654 273.75,234.836 273.75,231.365 L 273.75,221.914 C 273.75,218.442 268.71,215.625 262.499,215.625 C 256.29,215.625 251.25,218.442 251.25,221.914 Z" fill="#000000" fill-opacity="0.25"/>
     <ellipse rx="6.289" ry="11.25" transform="translate(262.501 231.365) rotate(90)" class="brick2" fill="#95e881"/>
    </g>
    <path d="M 168,231 L 157.5,225.75 L 157.5,194.25 L 210,168 L 210,210 L 199.443,215.279 L 168,231 Z" fill="#000000" stroke="none" fill-opacity="0.050980"/>
    <path d="M 252,189 L 210,168 L 210,210 L 252,189 Z" fill="#000000" stroke="none" fill-opacity="0.050980"/>
    <mask id="TranspMask">
     <rect x="-10%" y="-10%" width="120%" height="120%" fill="#262626" stroke="none"/>
    </mask>
    <g id="Group_16" stroke="none" mask="url(#TranspMask)">
     <path d="M 105,210 L 157.5,183.75 L 157.5,225.75 L 147,231 L 105,210 Z" class="brick1" fill="#ea272e"/>
     <g id="Group_17">
      <path d="M 145.499,198.385 L 145.499,207.836 C 145.499,211.307 150.539,214.125 156.748,214.125 C 157,214.125 157.251,214.12 157.5,214.111 L 157.5,192.109 C 157.251,192.1 157,192.096 156.748,192.096 C 150.539,192.096 145.499,194.913 145.499,198.385 Z" fill="#000000" fill-opacity="0.25"/>
      <path d="M 145.499,207.836 C 145.499,211.307 150.54,214.125 156.75,214.125 C 157.002,214.125 157.252,214.12 157.5,214.111 L 157.5,201.559 C 157.252,201.55 157.002,201.546 156.75,201.546 C 150.54,201.546 145.499,204.364 145.499,207.836 Z" class="brick1" fill="#ea272e"/>
     </g>
     <g id="Group_18">
      <path d="M 120.749,210.01 L 120.749,219.461 C 120.749,222.932 125.789,225.75 131.998,225.75 C 138.209,225.75 143.249,222.932 143.249,219.461 L 143.249,210.01 C 143.249,206.538 138.209,203.721 131.998,203.721 C 125.789,203.721 120.749,206.538 120.749,210.01 Z" fill="#000000" fill-opacity="0.25"/>
      <ellipse rx="6.289" ry="11.25" transform="translate(132 219.461) rotate(90)" class="brick1" fill="#ea272e"/>
     </g>
    </g>
    <mask id="TranspMask_1">
     <rect x="-10%" y="-10%" width="120%" height="120%" fill="#0d0d0d" stroke="none"/>
    </mask>
    <g id="Group_19" stroke="none" mask="url(#TranspMask_1)">
     <path d="M 168,231 L 210,210 L 262.5,236.25 L 220.5,257.25 L 168,231 Z" class="brick2" fill="#95e881"/>
     <g id="Group_20">
      <path d="M 198.75,223.789 L 198.75,233.24 C 198.75,236.711 203.79,239.529 209.999,239.529 C 216.21,239.529 221.25,236.711 221.25,233.24 L 221.25,223.789 C 221.25,220.317 216.21,217.5 209.999,217.5 C 203.79,217.5 198.75,220.317 198.75,223.789 Z" fill="#000000" fill-opacity="0.25"/>
      <ellipse rx="6.289" ry="11.25" transform="translate(210.001 233.24) rotate(90)" class="brick2" fill="#95e881"/>
     </g>
     <g id="Group_21">
      <path d="M 174.524,234.262 L 196.5,245.25 L 196.5,236.164 C 196.5,232.692 191.46,229.875 185.249,229.875 C 180.225,229.875 175.966,231.719 174.524,234.262 Z" fill="#000000" fill-opacity="0.25"/>
      <path d="M 184.666,239.333 L 196.481,245.24 C 196.134,241.942 191.235,239.325 185.251,239.325 C 185.055,239.325 184.86,239.327 184.666,239.333 Z" class="brick2" fill="#95e881"/>
     </g>
     <g id="Group_22">
      <path d="M 223.5,235.789 L 223.5,245.24 C 223.5,248.711 228.54,251.529 234.749,251.529 C 240.96,251.529 246,248.711 246,245.24 L 246,235.789 C 246,232.317 240.96,229.5 234.749,229.5 C 228.54,229.5 223.5,232.317 223.5,235.789 Z" fill="#000000" fill-opacity="0.25"/>
      <ellipse rx="6.289" ry="11.25" transform="translate(234.751 245.24) rotate(90)" class="brick2" fill="#95e881"/>
     </g>
     <g id="Group_23">
      <path d="M 198.883,246.442 L 221.176,257.587 C 221.225,257.35 221.25,257.109 221.25,256.865 L 221.25,247.414 C 221.25,243.942 216.21,241.125 209.999,241.125 C 204.381,241.125 199.72,243.431 198.883,246.442 Z" fill="#000000" fill-opacity="0.25"/>
      <path d="M 207.47,250.735 L 221.177,257.588 C 221.225,257.35 221.251,257.109 221.251,256.865 C 221.251,253.393 216.21,250.575 210.001,250.575 C 209.13,250.575 208.283,250.63 207.47,250.735 Z" class="brick2" fill="#95e881"/>
     </g>
    </g>
   </g>
   <g id="Green" display="none"/>
   <g id="Yellow" display="none"/>
  </g>
 </g>
</svg>
