<?xml version="1.0" encoding="UTF-8"?>
<!-- Created with Inkscape (http://www.inkscape.org/) -->
<svg width="1250" height="1250" version="1.1" viewBox="0 0 1250 1250" xmlns="http://www.w3.org/2000/svg" xmlns:xlink="http://www.w3.org/1999/xlink">
  <rect width="100%" height="100%" fill="#af9bd6"/>
  <g fill="#af9bd6" stroke="#fff" stroke-width="3">
    <ellipse id="plate-lg" cx="644" cy="618.7" rx="445" ry="444.5" fill-opacity=".9896"/>
    <path id="plate-sm" d="m940.6 620.2a298.7 306.7 0 0 1-298.7 306.7 298.7 306.7 0 0 1-298.7-306.7 298.7 306.7 0 0 1 298.7-306.7 298.7 306.7 0 0 1 298.7 306.7z"/>
    <path class="orange" d="m345.5 568.1c-2.164-41.81-15.54-82.38 28.28-129.3 33.54-37.3 86.13-41.12 115.7-38.13 23.39 1.699 85.76 27.31 108.6 67.43 13.27 40.54 19.81 76.7 1.01 125.3-33.86 41.82-71.17 83.32-147.5 69.7-53.9-15.58-92.52-44.4-106.1-94.95z"/>
    <path class="orange" d="m476.8 809.6c-63.56 7.79-106.5-9.483-132.3-47.48-35.35-42.76-42.71-85.53-32.32-128.3 17.84-69.04 60.81-87.83 105.1-104 52.39-5.663 95.35 1.084 126.3 30.3 23.98 30.99 46.49 62.6 39.4 129.3-15.7 58.81-47.55 106.9-106.1 120.2z"/>
    <path class="orange" d="m806.1 417.6c2.728-45.01-18.56-81.25-61.62-110.1-47.84-32.8-93.98-28.41-141.4-6.061-43.13 31.87-62.9 67.82-65.66 113.1-11.91 43.19 18.78 88.11 60.61 123.2 47.95 26.84 109 22.63 151.5 1.01 42.8-30.67 52.46-75.46 56.57-121.2z"/>
    <path class="orange" d="m476.8 809.6c-0.0475-49.9 16.69-94.51 67.68-128.3 44.18-22.72 91.85-33.17 137.4-7.071 42.05 23.26 80.21 65.61 79.8 124.2-7.88 85.64-42.92 105.3-79.8 130.3-39.36 20.24-85.99 24.34-149.5-9.091-44.47-28.59-53.76-68.18-55.56-110.1z"/>
    <path class="orange" d="m760.6 871.2c38.57 9.373 75.23-15.64 111.1-54.55 20.46-29.8 40.62-59.85 24.24-121.2-19.18-37.79-45.92-69.53-91.92-85.86-38.69-7.614-76.73-12.63-110.1 1.01-28.25 18.01-53.42 41.16-65.66 85.86-8.698 43.81-7.719 84.11 13.13 117.2 32.76 38.72 72.97 56.56 119.2 57.58z"/>
    <path class="orange" d="m696 507.5c17.18-43.67 46.98-78.26 120.2-89.9 47.86-5.637 89.17 8.361 126.3 56.57 28.19 42.17 30.32 87.81 18.18 135.4-14.45 39.6-27.81 79.59-113.1 92.93-52.44 10.19-95.71-5.817-129.3-49.5-35.79-42.18-34.59-92.58-22.22-145.5z"/>
    <path class="orange" d="m504.1 630.8c-0.4592-37.13 13.61-72.64 37.38-107.1 22.22-31.31 59.26-38.05 105.1-38.39 31.73 0.263 49.5 22.22 79.8 49.5 21.53 32.38 40.18 64.98 27.27 100-8.788 40.27-19.1 79.82-72.73 98.99-38.72 17.94-77.45 20.04-116.2-5.051-43.35-27.52-65.73-59.7-60.61-97.98z"/>
  </g>
  <image id="image" width="1250" height="1250" xlink:href="oranges.jpg" preserveAspectRatio="none"/>
</svg>
