<?xml version="1.0" standalone="no"?>
<!DOCTYPE svg PUBLIC "-//W3C//DTD SVG 1.1//EN" "http://www.w3.org/Graphics/SVG/1.1/DTD/svg11.dtd">
<!--Generator: Xara Xtreme (www.xara.com), SVG filter version: 1.0.0.13-->
<svg stroke-width="0.501" stroke-linejoin="bevel" fill-rule="evenodd" xmlns:xlink="http://www.w3.org/1999/xlink" xmlns="http://www.w3.org/2000/svg" version="1.1" overflow="visible" width="100%" height="100%" viewBox="0 0 420 410">
 <defs>
  <radialGradient id="RadialGradient" gradientUnits="userSpaceOnUse" cx="0" cy="0" r="2.211" gradientTransform="matrix(0.00135803 -1 0.503387 0.000457764 -0.002 0.001)">
   <stop offset="0" stop-color="#ffffff"/>
   <stop offset="1" stop-color="#191919"/>
  </radialGradient>
 </defs>
 <g id="Document" fill="none" stroke="black" font-family="Times New Roman" font-size="16" transform="scale(1 -1)">
  <g id="Spread" transform="translate(0 -450)">
   <g id="bottom-layer">
    <g id="Group" stroke="none">
     <path d="M 108.5,238.59 C 106.75,239.465 103.25,239.465 101.5,238.59 L 56,215.84 C 54.25,214.965 52.5,212.34 52.5,210.59 L 52.5,154.59 C 52.5,152.84 54.25,150.216 56,149.34 L 101.5,126.59 C 103.25,125.716 106.75,125.716 108.5,126.59 L 154,149.34 C 155.75,150.216 157.5,152.84 157.5,154.59 L 157.5,210.59 C 157.5,212.34 155.75,214.965 154,215.84 L 108.5,238.59 Z" fill="#191919"/>
     <path d="M 57.137,152.01 C 56.055,152.528 55.534,153.295 55.474,154.504 L 55.474,207.703 C 55.537,208.626 56.363,208.871 57.137,208.535 L 100.361,186.922 C 101.456,186.377 101.983,185.616 102.024,184.428 L 102.024,131.23 C 101.979,130.414 101.1,130.135 100.361,130.397 L 57.137,152.01 Z" fill="#297537" class="colour2 L6"/>
     <ellipse rx="1.097" ry="2.228" transform="translate(105.09 188.511) rotate(90)" fill="url(#RadialGradient)"/>
    </g>
    <g id="Group_1" stroke="none">
     <path d="M 318.5,238.59 C 316.75,239.465 313.25,239.465 311.5,238.59 L 266,215.84 C 264.25,214.965 262.5,212.34 262.5,210.59 L 262.5,154.59 C 262.5,152.84 264.25,150.216 266,149.34 L 311.5,126.59 C 313.25,125.716 316.75,125.716 318.5,126.59 L 364,149.34 C 365.75,150.216 367.5,152.84 367.5,154.59 L 367.5,210.59 C 367.5,212.34 365.75,214.965 364,215.84 L 318.5,238.59 Z" fill="#191919"/>
     <path d="M 362.862,152.01 C 363.943,152.528 364.464,153.295 364.524,154.504 L 364.524,207.703 C 364.461,208.626 363.635,208.871 362.862,208.535 L 319.637,186.922 C 318.542,186.377 318.015,185.616 317.974,184.428 L 317.974,131.23 C 318.019,130.414 318.899,130.135 319.637,130.397 L 362.862,152.01 Z" fill="#255ea2" class="colour4 R8"/>
     <ellipse rx="1.097" ry="2.228" transform="translate(315.09 188.511) rotate(90)" fill="url(#RadialGradient)"/>
    </g>
    <g id="Group_2" stroke="none">
     <path d="M 161,212.34 C 159.25,213.215 155.75,213.215 154,212.34 L 108.5,189.59 C 106.75,188.715 105,186.09 105,184.34 L 105,128.34 C 105,126.59 106.75,123.966 108.5,123.09 L 154,100.34 C 155.75,99.466 159.25,99.466 161,100.34 L 206.5,123.09 C 208.25,123.966 210,126.59 210,128.34 L 210,184.34 C 210,186.09 208.25,188.715 206.5,189.59 L 161,212.34 Z" fill="#191919"/>
     <path d="M 109.637,125.759 C 108.556,126.278 108.035,127.045 107.975,128.254 L 107.975,181.453 C 108.038,182.375 108.864,182.62 109.637,182.284 L 152.862,160.672 C 153.957,160.126 154.484,159.366 154.525,158.179 L 154.525,104.979 C 154.48,104.164 153.6,103.885 152.862,104.147 L 109.637,125.759 Z" fill="#f9ca2e" class="colour5 L7"/>
     <ellipse rx="1.097" ry="2.228" transform="translate(157.59 162.261) rotate(90)" fill="url(#RadialGradient)"/>
    </g>
    <g id="Group_3" stroke="none">
     <path d="M 266,212.34 C 264.25,213.215 260.75,213.215 259,212.34 L 213.5,189.59 C 211.75,188.715 210,186.09 210,184.34 L 210,128.34 C 210,126.59 211.75,123.966 213.5,123.09 L 259,100.34 C 260.75,99.466 264.25,99.466 266,100.34 L 311.5,123.09 C 313.25,123.966 315,126.59 315,128.34 L 315,184.34 C 315,186.09 313.25,188.715 311.5,189.59 L 266,212.34 Z" fill="#191919"/>
     <path d="M 310.362,125.759 C 311.443,126.278 311.964,127.045 312.024,128.254 L 312.024,181.453 C 311.962,182.375 311.135,182.62 310.362,182.284 L 267.137,160.672 C 266.043,160.126 265.515,159.366 265.474,158.179 L 265.474,104.979 C 265.519,104.164 266.399,103.885 267.137,104.147 L 310.362,125.759 Z" fill="#c72e33" class="colour3 R7"/>
     <ellipse rx="1.097" ry="2.228" transform="translate(262.59 162.261) rotate(90)" fill="url(#RadialGradient)"/>
    </g>
    <g id="Group_4" stroke="none">
     <path d="M 213.5,186.09 C 211.75,186.965 208.25,186.965 206.5,186.09 L 161,163.34 C 159.25,162.465 157.5,159.84 157.5,158.09 L 157.5,102.09 C 157.5,100.34 159.25,97.716 161,96.84 L 206.5,74.09 C 208.25,73.216 211.75,73.216 213.5,74.09 L 259,96.84 C 260.75,97.716 262.5,100.34 262.5,102.09 L 262.5,158.09 C 262.5,159.84 260.75,162.465 259,163.34 L 213.5,186.09 Z" fill="#191919"/>
     <path d="M 162.137,99.51 C 161.056,100.029 160.535,100.795 160.475,102.005 L 160.475,155.204 C 160.537,156.127 161.364,156.371 162.137,156.035 L 205.362,134.422 C 206.457,133.877 206.984,133.116 207.025,131.93 L 207.025,78.73 C 206.98,77.915 206.1,77.635 205.362,77.898 L 162.137,99.51 Z" fill="#f36021" class="colour6 L8"/>
     <path d="M 257.862,99.51 C 258.943,100.029 259.465,100.795 259.524,102.005 L 259.524,155.204 C 259.462,156.127 258.635,156.371 257.862,156.035 L 214.637,134.422 C 213.543,133.877 213.015,133.116 212.975,131.93 L 212.975,78.73 C 213.019,77.915 213.899,77.635 214.637,77.898 L 257.862,99.51 Z" fill="#ffffff" class="colour1 R6"/>
     <ellipse rx="1.097" ry="2.228" transform="translate(210.09 136.011) rotate(90)" fill="url(#RadialGradient)"/>
    </g>
   </g>
   <g id="middle-layer">
    <g id="Group_5" stroke="none">
     <path d="M 108.5,302.34 C 106.75,303.215 103.25,303.215 101.5,302.34 L 56,279.59 C 54.25,278.715 52.5,276.09 52.5,274.34 L 52.5,218.34 C 52.5,216.59 54.25,213.966 56,213.09 L 101.5,190.34 C 103.25,189.466 106.75,189.466 108.5,190.34 L 154,213.09 C 155.75,213.966 157.5,216.59 157.5,218.34 L 157.5,274.34 C 157.5,276.09 155.75,278.715 154,279.59 L 108.5,302.34 Z" fill="#191919"/>
     <path d="M 57.137,215.759 C 56.055,216.278 55.534,217.044 55.474,218.254 L 55.474,271.453 C 55.537,272.375 56.363,272.62 57.137,272.284 L 100.361,250.671 C 101.456,250.126 101.983,249.365 102.024,248.178 L 102.024,194.979 C 101.979,194.164 101.1,193.884 100.361,194.147 L 57.137,215.759 Z" fill="#f36021" class="colour6 L3"/>
     <ellipse rx="1.097" ry="2.228" transform="translate(105.09 252.261) rotate(90)" fill="url(#RadialGradient)"/>
    </g>
    <g id="Group_6" stroke="none">
     <path d="M 318.5,302.34 C 316.75,303.215 313.25,303.215 311.5,302.34 L 266,279.59 C 264.25,278.715 262.5,276.09 262.5,274.34 L 262.5,218.34 C 262.5,216.59 264.25,213.966 266,213.09 L 311.5,190.34 C 313.25,189.466 316.75,189.466 318.5,190.34 L 364,213.09 C 365.75,213.966 367.5,216.59 367.5,218.34 L 367.5,274.34 C 367.5,276.09 365.75,278.715 364,279.59 L 318.5,302.34 Z" fill="#191919"/>
     <path d="M 362.862,215.759 C 363.943,216.278 364.464,217.044 364.524,218.254 L 364.524,271.453 C 364.461,272.375 363.635,272.62 362.862,272.284 L 319.637,250.671 C 318.542,250.126 318.015,249.365 317.974,248.178 L 317.974,194.979 C 318.019,194.164 318.899,193.884 319.637,194.147 L 362.862,215.759 Z" fill="#ffffff" class="colour1 R5"/>
     <ellipse rx="1.097" ry="2.228" transform="translate(315.09 252.261) rotate(90)" fill="url(#RadialGradient)"/>
    </g>
    <g id="Group_7" stroke="none">
     <path d="M 161,276.09 C 159.25,276.965 155.75,276.965 154,276.09 L 108.5,253.34 C 106.75,252.465 105,249.84 105,248.09 L 105,192.09 C 105,190.34 106.75,187.716 108.5,186.84 L 154,164.09 C 155.75,163.216 159.25,163.216 161,164.09 L 206.5,186.84 C 208.25,187.716 210,190.34 210,192.09 L 210,248.09 C 210,249.84 208.25,252.465 206.5,253.34 L 161,276.09 Z" fill="#191919"/>
     <path d="M 109.637,189.51 C 108.556,190.028 108.035,190.795 107.975,192.004 L 107.975,245.203 C 108.038,246.126 108.864,246.371 109.637,246.034 L 152.862,224.422 C 153.957,223.877 154.484,223.116 154.525,221.929 L 154.525,168.729 C 154.48,167.914 153.6,167.635 152.862,167.897 L 109.637,189.51 Z" fill="#c72e33" class="colour3 L4"/>
     <ellipse rx="1.097" ry="2.228" transform="translate(157.59 226.011) rotate(90)" fill="url(#RadialGradient)"/>
    </g>
    <g id="Group_8" stroke="none">
     <path d="M 266,276.09 C 264.25,276.965 260.75,276.965 259,276.09 L 213.5,253.34 C 211.75,252.465 210,249.84 210,248.09 L 210,192.09 C 210,190.34 211.75,187.716 213.5,186.84 L 259,164.09 C 260.75,163.216 264.25,163.216 266,164.09 L 311.5,186.84 C 313.25,187.716 315,190.34 315,192.09 L 315,248.09 C 315,249.84 313.25,252.465 311.5,253.34 L 266,276.09 Z" fill="#191919"/>
     <path d="M 310.362,189.51 C 311.443,190.028 311.964,190.795 312.024,192.004 L 312.024,245.203 C 311.962,246.126 311.135,246.371 310.362,246.034 L 267.137,224.422 C 266.043,223.877 265.515,223.116 265.474,221.929 L 265.474,168.729 C 265.519,167.914 266.399,167.635 267.137,167.897 L 310.362,189.51 Z" fill="#297537" class="colour2 R4"/>
     <ellipse rx="1.097" ry="2.228" transform="translate(262.59 226.011) rotate(90)" fill="url(#RadialGradient)"/>
    </g>
    <g id="Group_9" stroke="none">
     <path d="M 213.5,249.84 C 211.75,250.715 208.25,250.715 206.5,249.84 L 161,227.09 C 159.25,226.215 157.5,223.59 157.5,221.84 L 157.5,165.84 C 157.5,164.09 159.25,161.466 161,160.59 L 206.5,137.84 C 208.25,136.966 211.75,136.966 213.5,137.84 L 259,160.59 C 260.75,161.466 262.5,164.09 262.5,165.84 L 262.5,221.84 C 262.5,223.59 260.75,226.215 259,227.09 L 213.5,249.84 Z" fill="#191919"/>
     <path d="M 162.137,163.259 C 161.056,163.778 160.535,164.545 160.475,165.754 L 160.475,218.954 C 160.537,219.876 161.364,220.12 162.137,219.784 L 205.362,198.172 C 206.457,197.626 206.984,196.865 207.025,195.679 L 207.025,142.479 C 206.98,141.664 206.1,141.385 205.362,141.647 L 162.137,163.259 Z" fill="#297537" class="colour2 L5"/>
     <path d="M 257.862,163.259 C 258.943,163.778 259.465,164.545 259.524,165.754 L 259.524,218.954 C 259.462,219.876 258.635,220.12 257.862,219.784 L 214.637,198.172 C 213.543,197.626 213.015,196.865 212.975,195.679 L 212.975,142.479 C 213.019,141.664 213.899,141.385 214.637,141.647 L 257.862,163.259 Z" fill="#c72e33" class="colour3 R3"/>
     <ellipse rx="1.097" ry="2.228" transform="translate(210.09 199.761) rotate(90)" fill="url(#RadialGradient)"/>
    </g>
   </g>
   <g id="top-layer">
    <g id="Group_10" stroke="none">
     <path d="M 213.5,418.246 C 211.75,419.121 208.25,419.121 206.5,418.246 L 161,395.496 C 159.25,394.621 157.5,391.996 157.5,390.246 L 157.5,334.246 C 157.5,332.496 159.25,329.871 161,328.996 L 206.5,306.246 C 208.25,305.371 211.75,305.371 213.5,306.246 L 259,328.996 C 260.75,329.871 262.5,332.496 262.5,334.246 L 262.5,390.246 C 262.5,391.996 260.75,394.621 259,395.496 L 213.5,418.246 Z" fill="#191919"/>
     <path d="M 208.339,416.189 C 209.446,416.741 210.556,416.705 211.664,416.189 L 254.888,394.576 C 255.671,394.103 255.649,393.323 254.888,392.914 L 211.664,371.302 C 210.525,370.752 209.417,370.781 208.339,371.302 L 165.114,392.914 C 164.418,393.323 164.44,394.158 165.114,394.576 L 208.339,416.189 Z" fill="#297537" class="colour2 T0"/>
     <ellipse rx="1.097" ry="2.228" transform="translate(210.09 368.167) rotate(90)" fill="url(#RadialGradient)"/>
    </g>
    <g id="Group_11" stroke="none">
     <path d="M 161,392.34 C 159.25,393.215 155.75,393.215 154,392.34 L 108.5,369.59 C 106.75,368.715 105,366.09 105,364.34 L 105,308.34 C 105,306.59 106.75,303.965 108.5,303.09 L 154,280.34 C 155.75,279.466 159.25,279.466 161,280.34 L 206.5,303.09 C 208.25,303.965 210,306.59 210,308.34 L 210,364.34 C 210,366.09 208.25,368.715 206.5,369.59 L 161,392.34 Z" fill="#191919"/>
     <path d="M 155.839,390.283 C 156.946,390.835 158.056,390.799 159.164,390.283 L 202.389,368.671 C 203.171,368.198 203.15,367.418 202.389,367.008 L 159.164,345.396 C 158.025,344.847 156.917,344.875 155.839,345.396 L 112.614,367.008 C 111.919,367.418 111.94,368.253 112.614,368.671 L 155.839,390.283 Z" fill="#ffffff" class="colour1 T3"/>
     <ellipse rx="1.097" ry="2.228" transform="translate(157.59 342.261) rotate(90)" fill="url(#RadialGradient)"/>
    </g>
    <g id="Group_12" stroke="none">
     <path d="M 266,392.09 C 264.25,392.965 260.75,392.965 259,392.09 L 213.5,369.34 C 211.75,368.465 210,365.84 210,364.09 L 210,308.09 C 210,306.34 211.75,303.715 213.5,302.84 L 259,280.09 C 260.75,279.215 264.25,279.215 266,280.09 L 311.5,302.84 C 313.25,303.715 315,306.34 315,308.09 L 315,364.09 C 315,365.84 313.25,368.465 311.5,369.34 L 266,392.09 Z" fill="#191919"/>
     <path d="M 260.838,390.033 C 261.946,390.584 263.056,390.549 264.163,390.033 L 307.388,368.42 C 308.171,367.947 308.149,367.167 307.388,366.758 L 264.163,345.145 C 263.024,344.596 261.917,344.625 260.838,345.145 L 217.614,366.758 C 216.918,367.167 216.94,368.002 217.614,368.42 L 260.838,390.033 Z" fill="#c72e33" class="colour3 T1"/>
     <ellipse rx="1.097" ry="2.228" transform="translate(262.59 342.011) rotate(90)" fill="url(#RadialGradient)"/>
    </g>
    <g id="Group_13" stroke="none">
     <path d="M 108.5,366.09 C 106.75,366.965 103.25,366.965 101.5,366.09 L 56,343.34 C 54.25,342.465 52.5,339.84 52.5,338.09 L 52.5,282.09 C 52.5,280.34 54.25,277.716 56,276.84 L 101.5,254.09 C 103.25,253.216 106.75,253.216 108.5,254.09 L 154,276.84 C 155.75,277.716 157.5,280.34 157.5,282.09 L 157.5,338.09 C 157.5,339.84 155.75,342.465 154,343.34 L 108.5,366.09 Z" fill="#191919"/>
     <path d="M 103.339,364.033 C 104.447,364.585 105.556,364.549 106.664,364.033 L 149.889,342.42 C 150.672,341.947 150.65,341.167 149.889,340.758 L 106.664,319.146 C 105.525,318.596 104.417,318.625 103.339,319.146 L 60.114,340.758 C 59.419,341.167 59.441,342.002 60.114,342.42 L 103.339,364.033 Z" fill="#255ea2" class="colour4 T6"/>
     <path d="M 57.133,279.506 C 56.052,280.023 55.531,280.792 55.471,282 L 55.471,335.198 C 55.533,336.122 56.359,336.366 57.133,336.03 L 100.358,314.418 C 101.453,313.872 101.978,313.111 102.02,311.923 L 102.02,258.725 C 101.975,257.911 101.096,257.632 100.358,257.893 L 57.133,279.506 Z" fill="#f9ca2e" class="colour5 L0"/>
     <ellipse rx="1.097" ry="2.228" transform="translate(105.09 316.011) rotate(90)" fill="url(#RadialGradient)"/>
    </g>
    <g id="Group_14" stroke="none">
     <path d="M 213.5,366.09 C 211.75,366.965 208.25,366.965 206.5,366.09 L 161,343.34 C 159.25,342.465 157.5,339.84 157.5,338.09 L 157.5,282.09 C 157.5,280.34 159.25,277.716 161,276.84 L 206.5,254.09 C 208.25,253.216 211.75,253.216 213.5,254.09 L 259,276.84 C 260.75,277.716 262.5,280.34 262.5,282.09 L 262.5,338.09 C 262.5,339.84 260.75,342.465 259,343.34 L 213.5,366.09 Z" fill="#191919"/>
     <path d="M 208.339,364.033 C 209.446,364.585 210.556,364.549 211.664,364.033 L 254.888,342.42 C 255.671,341.947 255.649,341.167 254.888,340.758 L 211.664,319.146 C 210.525,318.596 209.417,318.625 208.339,319.146 L 165.114,340.758 C 164.418,341.167 164.44,342.002 165.114,342.42 L 208.339,364.033 Z" fill="#f9ca2e" class="colour5 T4"/>
     <ellipse rx="1.097" ry="2.228" transform="translate(210.09 316.011) rotate(90)" fill="url(#RadialGradient)"/>
    </g>
    <g id="Group_15" stroke="none">
     <path d="M 318.5,366.09 C 316.75,366.965 313.25,366.965 311.5,366.09 L 266,343.34 C 264.25,342.465 262.5,339.84 262.5,338.09 L 262.5,282.09 C 262.5,280.34 264.25,277.716 266,276.84 L 311.5,254.09 C 313.25,253.216 316.75,253.216 318.5,254.09 L 364,276.84 C 365.75,277.716 367.5,280.34 367.5,282.09 L 367.5,338.09 C 367.5,339.84 365.75,342.465 364,343.34 L 318.5,366.09 Z" fill="#191919"/>
     <path d="M 313.338,364.033 C 314.446,364.585 315.556,364.549 316.663,364.033 L 359.888,342.42 C 360.671,341.947 360.649,341.167 359.888,340.758 L 316.663,319.146 C 315.524,318.596 314.417,318.625 313.338,319.146 L 270.113,340.758 C 269.418,341.167 269.44,342.002 270.113,342.42 L 313.338,364.033 Z" fill="#f36021" class="colour6 T2"/>
     <path d="M 362.862,279.509 C 363.943,280.028 364.464,280.795 364.524,282.004 L 364.524,335.203 C 364.461,336.125 363.635,336.371 362.862,336.034 L 319.637,314.422 C 318.542,313.876 318.015,313.116 317.974,311.928 L 317.974,258.729 C 318.019,257.914 318.899,257.635 319.637,257.897 L 362.862,279.509 Z" fill="#f9ca2e" class="colour5 R2"/>
     <ellipse rx="1.097" ry="2.228" transform="translate(315.09 316.011) rotate(90)" fill="url(#RadialGradient)"/>
    </g>
    <g id="Group_16" stroke="none">
     <path d="M 161,339.84 C 159.25,340.715 155.75,340.715 154,339.84 L 108.5,317.09 C 106.75,316.215 105,313.59 105,311.84 L 105,255.84 C 105,254.09 106.75,251.466 108.5,250.59 L 154,227.84 C 155.75,226.966 159.25,226.966 161,227.84 L 206.5,250.59 C 208.25,251.466 210,254.09 210,255.84 L 210,311.84 C 210,313.59 208.25,316.215 206.5,317.09 L 161,339.84 Z" fill="#191919"/>
     <path d="M 155.839,337.783 C 156.946,338.335 158.056,338.3 159.164,337.783 L 202.389,316.171 C 203.171,315.698 203.15,314.918 202.389,314.509 L 159.164,292.896 C 158.025,292.347 156.917,292.376 155.839,292.896 L 112.614,314.509 C 111.919,314.918 111.94,315.753 112.614,316.171 L 155.839,337.783 Z" fill="#ffffff" class="colour1 T7"/>
     <path d="M 109.637,253.26 C 108.556,253.779 108.035,254.545 107.975,255.755 L 107.975,308.954 C 108.038,309.876 108.864,310.121 109.637,309.785 L 152.862,288.172 C 153.957,287.627 154.484,286.866 154.525,285.68 L 154.525,232.48 C 154.48,231.665 153.6,231.385 152.862,231.648 L 109.637,253.26 Z" fill="#297537" class="colour2 L1"/>
     <ellipse rx="1.097" ry="2.228" transform="translate(157.59 289.761) rotate(90)" fill="url(#RadialGradient)"/>
    </g>
    <g id="Group_17" stroke="none">
     <path d="M 266,339.84 C 264.25,340.715 260.75,340.715 259,339.84 L 213.5,317.09 C 211.75,316.215 210,313.59 210,311.84 L 210,255.84 C 210,254.09 211.75,251.466 213.5,250.59 L 259,227.84 C 260.75,226.966 264.25,226.966 266,227.84 L 311.5,250.59 C 313.25,251.466 315,254.09 315,255.84 L 315,311.84 C 315,313.59 313.25,316.215 311.5,317.09 L 266,339.84 Z" fill="#191919"/>
     <path d="M 260.838,337.783 C 261.946,338.335 263.056,338.3 264.163,337.783 L 307.388,316.171 C 308.171,315.698 308.149,314.918 307.388,314.509 L 264.163,292.896 C 263.024,292.347 261.917,292.376 260.838,292.896 L 217.614,314.509 C 216.918,314.918 216.94,315.753 217.614,316.171 L 260.838,337.783 Z" fill="#255ea2" class="colour4 T5"/>
     <path d="M 310.362,253.26 C 311.443,253.779 311.964,254.545 312.024,255.755 L 312.024,308.954 C 311.962,309.876 311.135,310.121 310.362,309.785 L 267.137,288.172 C 266.043,287.627 265.515,286.866 265.474,285.68 L 265.474,232.48 C 265.519,231.665 266.399,231.385 267.137,231.648 L 310.362,253.26 Z" fill="#f36021" class="colour6 R1"/>
     <ellipse rx="1.097" ry="2.228" transform="translate(262.59 289.761) rotate(90)" fill="url(#RadialGradient)"/>
    </g>
    <g id="Group_18" stroke="none">
     <path d="M 213.5,313.59 C 211.75,314.465 208.25,314.465 206.5,313.59 L 161,290.84 C 159.25,289.965 157.5,287.34 157.5,285.59 L 157.5,229.59 C 157.5,227.84 159.25,225.216 161,224.34 L 206.5,201.59 C 208.25,200.716 211.75,200.716 213.5,201.59 L 259,224.34 C 260.75,225.216 262.5,227.84 262.5,229.59 L 262.5,285.59 C 262.5,287.34 260.75,289.965 259,290.84 L 213.5,313.59 Z" fill="#191919"/>
     <path d="M 208.339,311.533 C 209.446,312.085 210.556,312.05 211.664,311.533 L 254.888,289.921 C 255.671,289.448 255.649,288.669 254.888,288.259 L 211.664,266.647 C 210.525,266.097 209.417,266.125 208.339,266.647 L 165.114,288.259 C 164.418,288.669 164.44,289.503 165.114,289.921 L 208.339,311.533 Z" fill="#c72e33" class="colour3 T8"/>
     <path d="M 162.137,227.01 C 161.056,227.528 160.535,228.295 160.475,229.504 L 160.475,282.704 C 160.537,283.627 161.364,283.871 162.137,283.534 L 205.362,261.922 C 206.457,261.377 206.984,260.616 207.025,259.429 L 207.025,206.229 C 206.98,205.414 206.1,205.135 205.362,205.397 L 162.137,227.01 Z" fill="#255ea2" class="colour4 L2"/>
     <path d="M 257.862,227.01 C 258.943,227.528 259.465,228.295 259.524,229.504 L 259.524,282.704 C 259.462,283.627 258.635,283.871 257.862,283.534 L 214.637,261.922 C 213.543,261.377 213.015,260.616 212.975,259.429 L 212.975,206.229 C 213.019,205.414 213.899,205.135 214.637,205.397 L 257.862,227.01 Z" fill="#ffffff" class="colour1 R0"/>
     <ellipse rx="1.097" ry="2.228" transform="translate(210.09 263.511) rotate(90)" fill="url(#RadialGradient)"/>
    </g>
   </g>
  </g>
 </g>
</svg>
